<svg width="14" height="15" viewBox="0 0 14 15" fill="none" xmlns="http://www.w3.org/2000/svg">
<path d="M4.66984 7.03589C4.66984 5.74612 5.71481 4.70029 7.0042 4.70029C8.29359 4.70029 9.33912 5.74612 9.33912 7.03589C9.33912 8.32565 8.29359 9.37148 7.0042 9.37148C5.71481 9.37148 4.66984 8.32565 4.66984 7.03589ZM3.40763 7.03589C3.40763 9.02285 5.01781 10.6335 7.0042 10.6335C8.99059 10.6335 10.6008 9.02285 10.6008 7.03589C10.6008 5.04892 8.99059 3.43827 7.0042 3.43827C5.01781 3.43827 3.40763 5.04892 3.40763 7.03589ZM9.90265 3.29563C9.90258 3.46191 9.95181 3.62448 10.0441 3.76278C10.1364 3.90108 10.2676 4.00889 10.4212 4.07258C10.5748 4.13628 10.7437 4.153 10.9068 4.12062C11.0699 4.08825 11.2196 4.00823 11.3372 3.8907C11.4548 3.77317 11.5349 3.62339 11.5674 3.46032C11.5999 3.29724 11.5834 3.12819 11.5198 2.97453C11.4563 2.82088 11.3486 2.68953 11.2104 2.5971C11.0722 2.50466 10.9097 2.45528 10.7435 2.45522H10.7432C10.5203 2.45532 10.3067 2.54389 10.1491 2.70146C9.99147 2.85904 9.90284 3.07274 9.90265 3.29563ZM4.1745 12.7388C3.49162 12.7077 3.12046 12.5939 2.8738 12.4978C2.54678 12.3704 2.31346 12.2188 2.06814 11.9737C1.82283 11.7287 1.67098 11.4955 1.54423 11.1684C1.44808 10.9218 1.33433 10.5504 1.30329 9.8673C1.26933 9.12878 1.26255 8.90694 1.26255 7.03594C1.26255 5.16494 1.26989 4.94372 1.30329 4.20459C1.33438 3.52151 1.44897 3.15085 1.54423 2.9035C1.67154 2.5764 1.82317 2.34301 2.06814 2.09762C2.31312 1.85223 2.54622 1.70034 2.8738 1.57355C3.12034 1.47737 3.49162 1.36359 4.1745 1.33254C4.9128 1.29857 5.13458 1.29179 7.0042 1.29179C8.87382 1.29179 9.09582 1.29913 9.83474 1.33254C10.5176 1.36365 10.8882 1.47827 11.1354 1.57355C11.4625 1.70034 11.6958 1.85257 11.9411 2.09762C12.1864 2.34267 12.3377 2.5764 12.465 2.9035C12.5612 3.15012 12.6749 3.52151 12.706 4.20459C12.7399 4.94372 12.7467 5.16494 12.7467 7.03594C12.7467 8.90694 12.7399 9.12817 12.706 9.8673C12.6749 10.5504 12.5605 10.9216 12.465 11.1684C12.3377 11.4955 12.1861 11.7289 11.9411 11.9737C11.6961 12.2185 11.4625 12.3704 11.1354 12.4978C10.8889 12.5939 10.5176 12.7077 9.83474 12.7388C9.09644 12.7727 8.87466 12.7795 7.0042 12.7795C5.13374 12.7795 4.91258 12.7727 4.1745 12.7388ZM4.11651 0.0720928C3.37087 0.106059 2.86136 0.224324 2.41639 0.397518C1.95557 0.576373 1.56547 0.816322 1.17564 1.20564C0.785815 1.59497 0.546552 1.9858 0.367748 2.44675C0.194605 2.89213 0.0763738 3.40151 0.0424174 4.14736C0.00790074 4.89439 0 5.13322 0 7.03589C0 8.93855 0.00790074 9.17738 0.0424174 9.92441C0.0763738 10.6703 0.194605 11.1796 0.367748 11.625C0.546552 12.0857 0.785871 12.477 1.17564 12.8661C1.56541 13.2553 1.95557 13.4949 2.41639 13.6743C2.8622 13.8474 3.37087 13.9657 4.11651 13.9997C4.86372 14.0336 5.10208 14.0421 7.0042 14.0421C8.90632 14.0421 9.14508 14.0342 9.89189 13.9997C10.6376 13.9657 11.1468 13.8474 11.592 13.6743C12.0525 13.4949 12.4429 13.2554 12.8328 12.8661C13.2226 12.4768 13.4613 12.0857 13.6407 11.625C13.8138 11.1796 13.9326 10.6703 13.966 9.92441C13.9999 9.17682 14.0078 8.93855 14.0078 7.03589C14.0078 5.13322 13.9999 4.89439 13.966 4.14736C13.932 3.40145 13.8138 2.89184 13.6407 2.44675C13.4613 1.98608 13.222 1.59558 12.8328 1.20564C12.4435 0.815705 12.0525 0.576373 11.5926 0.397518C11.1468 0.224324 10.6375 0.105498 9.89245 0.0720928C9.14564 0.0381266 8.90688 0.0296631 7.00476 0.0296631C5.10264 0.0296631 4.86372 0.0375661 4.11651 0.0720928Z" fill="#FBA834"/>
<path d="M4.66984 7.03589C4.66984 5.74612 5.71481 4.70029 7.0042 4.70029C8.29359 4.70029 9.33912 5.74612 9.33912 7.03589C9.33912 8.32565 8.29359 9.37148 7.0042 9.37148C5.71481 9.37148 4.66984 8.32565 4.66984 7.03589ZM3.40763 7.03589C3.40763 9.02285 5.01781 10.6335 7.0042 10.6335C8.99059 10.6335 10.6008 9.02285 10.6008 7.03589C10.6008 5.04892 8.99059 3.43827 7.0042 3.43827C5.01781 3.43827 3.40763 5.04892 3.40763 7.03589ZM9.90265 3.29563C9.90258 3.46191 9.95181 3.62448 10.0441 3.76278C10.1364 3.90108 10.2676 4.00889 10.4212 4.07258C10.5748 4.13628 10.7437 4.153 10.9068 4.12062C11.0699 4.08825 11.2196 4.00823 11.3372 3.8907C11.4548 3.77317 11.5349 3.62339 11.5674 3.46032C11.5999 3.29724 11.5834 3.12819 11.5198 2.97453C11.4563 2.82088 11.3486 2.68953 11.2104 2.5971C11.0722 2.50466 10.9097 2.45528 10.7435 2.45522H10.7432C10.5203 2.45532 10.3067 2.54389 10.1491 2.70146C9.99147 2.85904 9.90284 3.07274 9.90265 3.29563ZM4.1745 12.7388C3.49162 12.7077 3.12046 12.5939 2.8738 12.4978C2.54678 12.3704 2.31346 12.2188 2.06814 11.9737C1.82283 11.7287 1.67098 11.4955 1.54423 11.1684C1.44808 10.9218 1.33433 10.5504 1.30329 9.8673C1.26933 9.12878 1.26255 8.90694 1.26255 7.03594C1.26255 5.16494 1.26989 4.94372 1.30329 4.20459C1.33438 3.52151 1.44897 3.15085 1.54423 2.9035C1.67154 2.5764 1.82317 2.34301 2.06814 2.09762C2.31312 1.85223 2.54622 1.70034 2.8738 1.57355C3.12034 1.47737 3.49162 1.36359 4.1745 1.33254C4.9128 1.29857 5.13458 1.29179 7.0042 1.29179C8.87382 1.29179 9.09582 1.29913 9.83474 1.33254C10.5176 1.36365 10.8882 1.47827 11.1354 1.57355C11.4625 1.70034 11.6958 1.85257 11.9411 2.09762C12.1864 2.34267 12.3377 2.5764 12.465 2.9035C12.5612 3.15012 12.6749 3.52151 12.706 4.20459C12.7399 4.94372 12.7467 5.16494 12.7467 7.03594C12.7467 8.90694 12.7399 9.12817 12.706 9.8673C12.6749 10.5504 12.5605 10.9216 12.465 11.1684C12.3377 11.4955 12.1861 11.7289 11.9411 11.9737C11.6961 12.2185 11.4625 12.3704 11.1354 12.4978C10.8889 12.5939 10.5176 12.7077 9.83474 12.7388C9.09644 12.7727 8.87466 12.7795 7.0042 12.7795C5.13374 12.7795 4.91258 12.7727 4.1745 12.7388ZM4.11651 0.0720928C3.37087 0.106059 2.86136 0.224324 2.41639 0.397518C1.95557 0.576373 1.56547 0.816322 1.17564 1.20564C0.785815 1.59497 0.546552 1.9858 0.367748 2.44675C0.194605 2.89213 0.0763738 3.40151 0.0424174 4.14736C0.00790074 4.89439 0 5.13322 0 7.03589C0 8.93855 0.00790074 9.17738 0.0424174 9.92441C0.0763738 10.6703 0.194605 11.1796 0.367748 11.625C0.546552 12.0857 0.785871 12.477 1.17564 12.8661C1.56541 13.2553 1.95557 13.4949 2.41639 13.6743C2.8622 13.8474 3.37087 13.9657 4.11651 13.9997C4.86372 14.0336 5.10208 14.0421 7.0042 14.0421C8.90632 14.0421 9.14508 14.0342 9.89189 13.9997C10.6376 13.9657 11.1468 13.8474 11.592 13.6743C12.0525 13.4949 12.4429 13.2554 12.8328 12.8661C13.2226 12.4768 13.4613 12.0857 13.6407 11.625C13.8138 11.1796 13.9326 10.6703 13.966 9.92441C13.9999 9.17682 14.0078 8.93855 14.0078 7.03589C14.0078 5.13322 13.9999 4.89439 13.966 4.14736C13.932 3.40145 13.8138 2.89184 13.6407 2.44675C13.4613 1.98608 13.222 1.59558 12.8328 1.20564C12.4435 0.815705 12.0525 0.576373 11.5926 0.397518C11.1468 0.224324 10.6375 0.105498 9.89245 0.0720928C9.14564 0.0381266 8.90688 0.0296631 7.00476 0.0296631C5.10264 0.0296631 4.86372 0.0375661 4.11651 0.0720928Z" fill="#FBA834"/>
</svg>
