<svg width="12" height="12" viewBox="0 0 12 12" fill="none" xmlns="http://www.w3.org/2000/svg">
<path d="M2.77923 11.6738V4.11017H0.267438V11.6738H2.77949H2.77923ZM1.52386 3.07766C2.39959 3.07766 2.94479 2.49687 2.94479 1.77104C2.9284 1.02867 2.39959 0.464081 1.54051 0.464081C0.680847 0.464081 0.119385 1.02867 0.119385 1.77097C0.119385 2.4968 0.664389 3.0776 1.5074 3.0776H1.52366L1.52386 3.07766ZM4.16954 11.6738H6.68114V7.45037C6.68114 7.22461 6.69753 6.99827 6.76389 6.83702C6.94538 6.38518 7.35866 5.91746 8.0527 5.91746C8.96135 5.91746 9.32506 6.611 9.32506 7.62789V11.6738H11.8366V7.33703C11.8366 5.01391 10.5976 3.93284 8.94509 3.93284C7.59025 3.93284 6.99521 4.69077 6.66462 5.20699H6.68134V4.11043H4.16968C4.20246 4.81999 4.16948 11.674 4.16948 11.674L4.16954 11.6738Z" fill="#FBA834"/>
</svg>
